<?xml version="1.0" encoding="utf-8"?>
<!-- Generator: Adobe Illustrator 26.1.0, SVG Export Plug-In . SVG Version: 6.00 Build 0)  -->
<svg version="1.1" id="Layer_1" xmlns="http://www.w3.org/2000/svg" xmlns:xlink="http://www.w3.org/1999/xlink" x="0px" y="0px"
	 viewBox="0 0 448 512" style="enable-background:new 0 0 448 512;" xml:space="preserve">
<style type="text/css">
	.st0{fill:#FFFFFF;}
</style>
<path class="st0" d="M135.2,17.7C140.6,6.8,151.7,0,163.8,0h120.4c12.1,0,23.2,6.8,28.6,17.7L320,32h96c17.7,0,32,14.3,32,32
	s-14.3,32-32,32H32C14.3,96,0,81.7,0,64s14.3-32,32-32h96L135.2,17.7z M31.1,128H416v320c0,35.3-28.7,64-64,64H95.1
	c-34.4,0-64-28.7-64-64V128z M111.1,208v224c0,8.8,8.1,16,16,16c9.7,0,16-7.2,16-16V208c0-8.8-6.3-16-16-16
	C119.2,192,111.1,199.2,111.1,208z M207.1,208v224c0,8.8,8.1,16,16,16c9.7,0,16.9-7.2,16.9-16V208c0-8.8-7.2-16-16.9-16
	C215.2,192,207.1,199.2,207.1,208z M304,208v224c0,8.8,7.2,16,16,16s16-7.2,16-16V208c0-8.8-7.2-16-16-16S304,199.2,304,208z"/>
</svg>
